<svg width="54" height="54" viewBox="0 0 54 54" fill="none" xmlns="http://www.w3.org/2000/svg">
<rect width="53.4821" height="53.4821" rx="4.27857" fill="#F73640"/>
<path d="M32.4102 38.0617V36.3782H34.3894C35.0113 36.3782 35.489 36.2265 35.8227 35.9232C36.1564 35.635 36.3232 35.1497 36.3232 34.4672C36.3232 33.8605 36.2777 33.3372 36.1867 32.8974C36.1109 32.4424 36.0275 31.9874 35.9365 31.5324C35.8606 31.0622 35.8227 30.501 35.8227 29.8488C35.8227 29.045 35.9971 28.3852 36.346 27.8696C36.6948 27.3387 37.1498 26.9747 37.711 26.7775V26.6865C37.1498 26.4894 36.6948 26.1329 36.346 25.6173C35.9971 25.0864 35.8227 24.4191 35.8227 23.6152C35.8227 22.9631 35.8606 22.4095 35.9365 21.9545C36.0275 21.4843 36.1109 21.0293 36.1867 20.5894C36.2777 20.1344 36.3232 19.6036 36.3232 18.9969C36.3232 18.3144 36.1564 17.8291 35.8227 17.5409C35.489 17.2375 35.0113 17.0859 34.3894 17.0859H32.4102V15.4023H34.5942C35.6862 15.4023 36.5507 15.6753 37.1877 16.2214C37.8399 16.7522 38.166 17.6091 38.166 18.7921C38.166 19.3685 38.1205 19.8918 38.0295 20.3619C37.9537 20.8169 37.8702 21.3099 37.7792 21.8407C37.7034 22.3564 37.6655 22.9934 37.6655 23.7517C37.6655 24.4039 37.8323 24.9272 38.166 25.3215C38.5148 25.7007 39.076 25.8903 39.8495 25.8903H40.9188V27.5738H39.8495C39.076 27.5738 38.5148 27.771 38.166 28.1653C37.8323 28.5445 37.6655 29.0602 37.6655 29.7123C37.6655 30.4555 37.7034 31.0925 37.7792 31.6234C37.8702 32.1542 37.9537 32.6547 38.0295 33.1249C38.1205 33.5799 38.166 34.0956 38.166 34.6719C38.166 35.8549 37.8399 36.7119 37.1877 37.2427C36.5507 37.7887 35.6862 38.0617 34.5942 38.0617H32.4102Z" fill="#F4F4F4"/>
<path d="M18.3246 38.0617C17.2326 38.0617 16.3605 37.7887 15.7083 37.2427C15.0713 36.7119 14.7528 35.8549 14.7528 34.6719C14.7528 34.0956 14.7907 33.5799 14.8665 33.1249C14.9575 32.6547 15.041 32.1542 15.1168 31.6234C15.2078 31.0925 15.2533 30.4555 15.2533 29.7123C15.2533 29.0602 15.0789 28.5445 14.73 28.1653C14.3964 27.771 13.8428 27.5738 13.0693 27.5738H12V25.8903H13.0693C13.8428 25.8903 14.3964 25.7007 14.73 25.3215C15.0789 24.9272 15.2533 24.4039 15.2533 23.7517C15.2533 22.9934 15.2078 22.3564 15.1168 21.8407C15.041 21.3099 14.9575 20.8169 14.8665 20.3619C14.7907 19.8918 14.7528 19.3685 14.7528 18.7921C14.7528 17.6091 15.0713 16.7522 15.7083 16.2214C16.3605 15.6753 17.2326 15.4023 18.3246 15.4023H20.5086V17.0859H18.5294C17.9075 17.0859 17.4298 17.2375 17.0961 17.5409C16.7624 17.8291 16.5956 18.3144 16.5956 18.9969C16.5956 19.6036 16.6335 20.1344 16.7093 20.5894C16.8003 21.0293 16.8837 21.4843 16.9596 21.9545C17.0506 22.4095 17.0961 22.9631 17.0961 23.6152C17.0961 24.4191 16.9217 25.0864 16.5728 25.6173C16.224 26.1329 15.769 26.4894 15.2078 26.6865V26.7775C15.769 26.9747 16.224 27.3387 16.5728 27.8696C16.9217 28.3852 17.0961 29.045 17.0961 29.8488C17.0961 30.501 17.0506 31.0622 16.9596 31.5324C16.8837 31.9874 16.8003 32.4424 16.7093 32.8974C16.6335 33.3372 16.5956 33.8605 16.5956 34.4672C16.5956 35.1497 16.7624 35.635 17.0961 35.9232C17.4298 36.2265 17.9075 36.3782 18.5294 36.3782H20.5086V38.0617H18.3246Z" fill="#F4F4F4"/>
</svg>
