<svg width="1216" height="288" viewBox="0 0 1216 288" fill="none" xmlns="http://www.w3.org/2000/svg">
<path d="M37.375 130.738C31.677 130.738 26.9448 129.724 23.1783 127.696C19.4118 125.668 16.6111 123.012 14.7762 119.729C12.9412 116.348 12.0238 112.679 12.0238 108.719C12.0238 101.379 14.6796 95.826 19.9913 92.0595C25.3996 88.1965 32.5945 86.265 41.5761 86.265H61.2777V84.8163C61.2777 72.2614 55.5314 65.9839 44.0388 65.9839C39.4032 65.9839 35.4918 66.998 32.3048 69.0261C29.2143 71.0542 27.2345 74.2412 26.3653 78.5871H13.907C14.3899 73.7583 15.9834 69.6055 18.6875 66.1288C21.4882 62.652 25.0616 59.9962 29.4075 58.1612C33.7534 56.3263 38.6305 55.4088 44.0388 55.4088C54.2759 55.4088 61.7123 58.113 66.348 63.5212C71.0802 68.8329 73.4463 75.9313 73.4463 84.8163V129H63.0161L62.002 117.845H60.988C58.8633 121.322 56.0143 124.364 52.441 126.972C48.9642 129.483 43.9422 130.738 37.375 130.738ZM39.548 120.018C44.1837 120.018 48.095 118.908 51.282 116.687C54.5656 114.465 57.0283 111.52 58.6701 107.85C60.4085 104.18 61.2777 100.172 61.2777 95.826H42.5902C36.023 95.826 31.3873 96.9367 28.6832 99.1579C26.0756 101.379 24.7718 104.325 24.7718 107.995C24.7718 111.761 26.0273 114.707 28.5383 116.831C31.0493 118.956 34.7192 120.018 39.548 120.018ZM129.452 44.3991C126.555 44.3991 124.141 43.4334 122.209 41.5018C120.278 39.5703 119.312 37.2525 119.312 34.5483C119.312 31.7476 120.278 29.4298 122.209 27.5948C124.141 25.6633 126.555 24.6975 129.452 24.6975C132.253 24.6975 134.619 25.6633 136.551 27.5948C138.579 29.4298 139.593 31.7476 139.593 34.5483C139.593 37.2525 138.579 39.5703 136.551 41.5018C134.619 43.4334 132.253 44.3991 129.452 44.3991ZM101.349 129V118.57H124.237V71.1991C124.237 68.7846 123.03 67.5774 120.616 67.5774H103.811V57.1472H123.513C132.108 57.1472 136.406 61.4448 136.406 70.0401V118.57H159.294V129H101.349Z" fill="#6B6B6B"/>
<path d="M236.417 130.159C229.946 130.159 224.248 128.565 219.323 125.378C214.494 122.095 210.727 117.652 208.023 112.051C205.319 106.449 203.967 100.172 203.967 93.2185C203.967 85.6855 205.416 79.1666 208.313 73.6618C211.21 68.1569 215.122 63.9075 220.047 60.9137C224.972 57.9198 230.429 56.4229 236.417 56.4229C240.956 56.4229 245.012 57.3403 248.585 59.1753C252.159 60.9137 255.152 63.3281 257.567 66.4185C260.078 69.4124 261.816 72.7926 262.782 76.559L259.305 78.8769V28.0294H271.474V129H259.305V107.705L263.361 109.009C262.106 113.161 260.223 116.831 257.712 120.018C255.201 123.205 252.159 125.716 248.585 127.551C245.012 129.29 240.956 130.159 236.417 130.159ZM238.445 118.859C242.791 118.859 246.605 117.797 249.889 115.672C253.173 113.451 255.732 110.409 257.567 106.546C259.402 102.683 260.319 98.2404 260.319 93.2185C260.319 88.1965 259.402 83.754 257.567 79.8909C255.732 76.0279 253.173 73.034 249.889 70.9093C246.605 68.6881 242.791 67.5774 238.445 67.5774C234.099 67.5774 230.236 68.6881 226.856 70.9093C223.572 73.034 220.964 76.0279 219.033 79.8909C217.198 83.754 216.28 88.1965 216.28 93.2185C216.28 98.2404 217.198 102.683 219.033 106.546C220.964 110.409 223.572 113.451 226.856 115.672C230.236 117.797 234.099 118.859 238.445 118.859ZM322.454 130.159C316.852 130.159 311.927 129.241 307.678 127.406C303.525 125.475 300.048 122.819 297.247 119.439C294.543 116.059 292.467 112.196 291.018 107.85C289.666 103.407 288.99 98.7233 288.99 93.7979C288.99 88.8725 289.666 84.1886 291.018 79.7461C292.37 75.207 294.35 71.1991 296.958 67.7223C299.662 64.2456 303.042 61.4931 307.098 59.465C311.154 57.4369 315.887 56.4229 321.295 56.4229C326.8 56.4229 331.532 57.3886 335.492 59.3202C339.548 61.1551 342.831 63.7144 345.342 66.998C347.95 70.2816 349.881 73.9515 351.137 78.0077C352.392 82.0639 353.02 86.265 353.02 90.6109C353.02 90.9972 352.972 91.9147 352.875 93.3633C352.875 94.7154 352.779 95.9226 352.586 96.9849H301.159C301.448 103.938 303.476 109.347 307.243 113.21C311.009 117.073 316.128 119.004 322.599 119.004C326.751 119.004 330.373 118.328 333.463 116.976C336.554 115.624 339.451 113.451 342.155 110.457L350.702 117.99C348.095 120.791 345.342 123.109 342.445 124.944C339.548 126.682 336.457 127.986 333.174 128.855C329.987 129.724 326.413 130.159 322.454 130.159ZM340.851 90.7558C341.045 89.9832 341.141 89.2105 341.141 88.4379C341.238 87.6653 341.286 86.8927 341.286 86.1201C341.286 83.8023 340.851 81.4844 339.982 79.1666C339.21 76.8488 338.002 74.7724 336.361 72.9374C334.815 71.0059 332.787 69.509 330.276 68.4466C327.862 67.2877 324.965 66.7083 321.585 66.7083C317.432 66.7083 313.858 67.674 310.865 69.6055C307.871 71.5371 305.553 74.0963 303.911 77.2834C302.269 80.4704 301.303 83.9954 301.014 87.8585H344.908L340.851 90.7558ZM391.304 129L362.041 57.5818H375.514L396.374 113.21L417.38 57.5818H430.707L401.589 129H391.304ZM472.836 130.159C467.234 130.159 462.309 129.241 458.059 127.406C453.907 125.475 450.43 122.819 447.629 119.439C444.925 116.059 442.849 112.196 441.4 107.85C440.048 103.407 439.372 98.7233 439.372 93.7979C439.372 88.8725 440.048 84.1886 441.4 79.7461C442.752 75.207 444.732 71.1991 447.339 67.7223C450.043 64.2456 453.424 61.4931 457.48 59.465C461.536 57.4369 466.268 56.4229 471.677 56.4229C477.181 56.4229 481.914 57.3886 485.873 59.3202C489.93 61.1551 493.213 63.7144 495.724 66.998C498.332 70.2816 500.263 73.9515 501.519 78.0077C502.774 82.0639 503.402 86.265 503.402 90.6109C503.402 90.9972 503.354 91.9147 503.257 93.3633C503.257 94.7154 503.16 95.9226 502.967 96.9849H451.54C451.83 103.938 453.858 109.347 457.625 113.21C461.391 117.073 466.51 119.004 472.98 119.004C477.133 119.004 480.755 118.328 483.845 116.976C486.936 115.624 489.833 113.451 492.537 110.457L501.084 117.99C498.477 120.791 495.724 123.109 492.827 124.944C489.93 126.682 486.839 127.986 483.555 128.855C480.368 129.724 476.795 130.159 472.836 130.159ZM491.233 90.7558C491.426 89.9832 491.523 89.2105 491.523 88.4379C491.62 87.6653 491.668 86.8927 491.668 86.1201C491.668 83.8023 491.233 81.4844 490.364 79.1666C489.591 76.8488 488.384 74.7724 486.742 72.9374C485.197 71.0059 483.169 69.509 480.658 68.4466C478.244 67.2877 475.346 66.7083 471.966 66.7083C467.814 66.7083 464.24 67.674 461.246 69.6055C458.252 71.5371 455.935 74.0963 454.293 77.2834C452.651 80.4704 451.685 83.9954 451.396 87.8585H495.29L491.233 90.7558ZM535.278 130.159C530.932 130.159 527.407 128.807 524.703 126.103C521.999 123.399 520.646 119.101 520.646 113.21V28.0294H532.815V110.892C532.815 113.693 533.395 115.721 534.553 116.976C535.712 118.232 537.258 118.859 539.189 118.859C540.058 118.859 541.024 118.763 542.086 118.57C543.149 118.377 544.259 118.087 545.418 117.701V128.131C543.777 128.807 542.038 129.29 540.203 129.579C538.368 129.966 536.726 130.159 535.278 130.159ZM590.71 130.159C584.046 130.159 578.058 128.614 572.747 125.523C567.532 122.336 563.427 117.942 560.433 112.341C557.439 106.739 555.942 100.365 555.942 93.2185C555.942 86.0718 557.391 79.7461 560.288 74.2412C563.282 68.6398 567.387 64.2938 572.602 61.2034C577.914 58.0164 583.95 56.4229 590.71 56.4229C597.47 56.4229 603.41 58.0164 608.528 61.2034C613.743 64.2938 617.848 68.6398 620.842 74.2412C623.836 79.7461 625.333 86.0718 625.333 93.2185C625.333 100.365 623.836 106.739 620.842 112.341C617.848 117.845 613.743 122.191 608.528 125.378C603.313 128.565 597.374 130.159 590.71 130.159ZM590.71 119.294C595.249 119.294 599.16 118.232 602.444 116.107C605.824 113.886 608.432 110.844 610.267 106.981C612.102 103.021 613.019 98.4336 613.019 93.2185C613.019 87.9068 612.102 83.3194 610.267 79.4563C608.432 75.4967 605.824 72.4545 602.444 70.3299C599.16 68.2052 595.249 67.1428 590.71 67.1428C586.074 67.1428 582.066 68.2535 578.686 70.4747C575.306 72.5994 572.698 75.5933 570.864 79.4563C569.029 83.3194 568.111 87.9068 568.111 93.2185C568.111 98.4336 569.029 103.021 570.864 106.981C572.698 110.844 575.306 113.886 578.686 116.107C582.066 118.232 586.074 119.294 590.71 119.294ZM642.883 158.552V57.5818H655.051V78.8769L651.14 76.1244C652.395 71.9717 654.23 68.4466 656.645 65.5493C659.156 62.5555 662.198 60.2859 665.771 58.7407C669.345 57.1955 673.401 56.4229 677.94 56.4229C684.411 56.4229 690.06 58.0647 694.889 61.3483C699.814 64.5353 703.629 68.9295 706.333 74.5309C709.038 80.0358 710.39 86.3133 710.39 93.3633C710.39 100.8 708.941 107.319 706.044 112.92C703.146 118.425 699.235 122.674 694.31 125.668C689.384 128.662 683.928 130.159 677.94 130.159C673.401 130.159 669.345 129.338 665.771 127.696C662.198 126.054 659.204 123.785 656.79 120.888C654.375 117.99 652.637 114.707 651.575 111.037L655.051 107.705V158.552H642.883ZM675.912 119.004C680.258 119.004 684.073 117.942 687.356 115.817C690.736 113.596 693.344 110.554 695.179 106.691C697.11 102.828 698.076 98.3853 698.076 93.3633C698.076 88.3414 697.11 83.8988 695.179 80.0358C693.344 76.1727 690.736 73.1789 687.356 71.0542C684.073 68.8329 680.258 67.7223 675.912 67.7223C671.566 67.7223 667.751 68.8329 664.468 71.0542C661.184 73.1789 658.625 76.1727 656.79 80.0358C654.955 83.8988 654.037 88.3414 654.037 93.3633C654.037 98.3853 654.955 102.828 656.79 106.691C658.625 110.554 661.184 113.596 664.468 115.817C667.751 117.942 671.566 119.004 675.912 119.004ZM758.038 130.159C752.436 130.159 747.511 129.241 743.261 127.406C739.109 125.475 735.632 122.819 732.831 119.439C730.127 116.059 728.051 112.196 726.602 107.85C725.25 103.407 724.574 98.7233 724.574 93.7979C724.574 88.8725 725.25 84.1886 726.602 79.7461C727.954 75.207 729.934 71.1991 732.541 67.7223C735.246 64.2456 738.626 61.4931 742.682 59.465C746.738 57.4369 751.47 56.4229 756.879 56.4229C762.383 56.4229 767.116 57.3886 771.075 59.3202C775.132 61.1551 778.415 63.7144 780.926 66.998C783.534 70.2816 785.465 73.9515 786.721 78.0077C787.976 82.0639 788.604 86.265 788.604 90.6109C788.604 90.9972 788.556 91.9147 788.459 93.3633C788.459 94.7154 788.363 95.9226 788.169 96.9849H736.742C737.032 103.938 739.06 109.347 742.827 113.21C746.593 117.073 751.712 119.004 758.182 119.004C762.335 119.004 765.957 118.328 769.047 116.976C772.138 115.624 775.035 113.451 777.739 110.457L786.286 117.99C783.679 120.791 780.926 123.109 778.029 124.944C775.132 126.682 772.041 127.986 768.758 128.855C765.57 129.724 761.997 130.159 758.038 130.159ZM776.435 90.7558C776.628 89.9832 776.725 89.2105 776.725 88.4379C776.822 87.6653 776.87 86.8927 776.87 86.1201C776.87 83.8023 776.435 81.4844 775.566 79.1666C774.794 76.8488 773.586 74.7724 771.945 72.9374C770.399 71.0059 768.371 69.509 765.86 68.4466C763.446 67.2877 760.549 66.7083 757.168 66.7083C753.016 66.7083 749.442 67.674 746.448 69.6055C743.455 71.5371 741.137 74.0963 739.495 77.2834C737.853 80.4704 736.887 83.9954 736.598 87.8585H780.492L776.435 90.7558ZM806.138 129V57.5818H818.452V76.7039L815.265 77.4282C815.941 73.1789 817.534 69.509 820.045 66.4185C822.653 63.2315 825.647 60.7688 829.027 59.0304C832.504 57.2921 835.884 56.4229 839.167 56.4229C841.389 56.4229 843.513 56.6643 845.541 57.1472C847.569 57.6301 849.646 58.451 851.771 59.6099L845.686 70.6196C844.527 70.0401 843.127 69.5573 841.485 69.171C839.94 68.7846 838.443 68.5915 836.994 68.5915C834.677 68.5915 832.359 69.0261 830.041 69.8953C827.82 70.7645 825.791 72.1165 823.957 73.9515C822.122 75.7864 820.721 78.2491 819.755 81.3396C819.369 82.6916 819.031 84.4783 818.741 86.6996C818.548 88.8242 818.452 91.7698 818.452 95.5363V129H806.138ZM926.52 130.159C923.139 130.159 920.049 129.531 917.248 128.276C914.544 126.924 912.419 124.799 910.874 121.902C909.329 119.004 908.556 115.286 908.556 110.747V38.4597L921.015 31.5062V107.56C921.015 111.52 921.642 114.61 922.898 116.831C924.153 118.956 926.423 120.018 929.707 120.018C930.672 120.018 931.831 119.922 933.183 119.729C934.535 119.439 935.984 119.101 937.529 118.715V128.276C935.694 128.952 933.811 129.435 931.879 129.724C930.045 130.014 928.258 130.159 926.52 130.159ZM893.78 67.1428V57.5818H937.529V67.1428H893.78ZM982.863 130.159C976.199 130.159 970.211 128.614 964.9 125.523C959.684 122.336 955.58 117.942 952.586 112.341C949.592 106.739 948.095 100.365 948.095 93.2185C948.095 86.0718 949.544 79.7461 952.441 74.2412C955.435 68.6398 959.54 64.2938 964.755 61.2034C970.066 58.0164 976.102 56.4229 982.863 56.4229C989.623 56.4229 995.563 58.0164 1000.68 61.2034C1005.9 64.2938 1010 68.6398 1012.99 74.2412C1015.99 79.7461 1017.49 86.0718 1017.49 93.2185C1017.49 100.365 1015.99 106.739 1012.99 112.341C1010 117.845 1005.9 122.191 1000.68 125.378C995.466 128.565 989.527 130.159 982.863 130.159ZM982.863 119.294C987.402 119.294 991.313 118.232 994.597 116.107C997.977 113.886 1000.58 110.844 1002.42 106.981C1004.25 103.021 1005.17 98.4336 1005.17 93.2185C1005.17 87.9068 1004.25 83.3194 1002.42 79.4563C1000.58 75.4967 997.977 72.4545 994.597 70.3299C991.313 68.2052 987.402 67.1428 982.863 67.1428C978.227 67.1428 974.219 68.2535 970.839 70.4747C967.459 72.5994 964.851 75.5933 963.016 79.4563C961.181 83.3194 960.264 87.9068 960.264 93.2185C960.264 98.4336 961.181 103.021 963.016 106.981C964.851 110.844 967.459 113.886 970.839 116.107C974.219 118.232 978.227 119.294 982.863 119.294ZM1066.47 130.159C1059.81 130.159 1053.82 128.614 1048.51 125.523C1043.29 122.336 1039.19 117.942 1036.19 112.341C1033.2 106.739 1031.7 100.365 1031.7 93.2185C1031.7 86.0718 1033.15 79.7461 1036.05 74.2412C1039.04 68.6398 1043.15 64.2938 1048.36 61.2034C1053.67 58.0164 1059.71 56.4229 1066.47 56.4229C1073.23 56.4229 1079.17 58.0164 1084.29 61.2034C1089.5 64.2938 1093.61 68.6398 1096.6 74.2412C1099.6 79.7461 1101.09 86.0718 1101.09 93.2185C1101.09 100.365 1099.6 106.739 1096.6 112.341C1093.61 117.845 1089.5 122.191 1084.29 125.378C1079.07 128.565 1073.13 130.159 1066.47 130.159ZM1066.47 119.294C1071.01 119.294 1074.92 118.232 1078.21 116.107C1081.59 113.886 1084.19 110.844 1086.03 106.981C1087.86 103.021 1088.78 98.4336 1088.78 93.2185C1088.78 87.9068 1087.86 83.3194 1086.03 79.4563C1084.19 75.4967 1081.59 72.4545 1078.21 70.3299C1074.92 68.2052 1071.01 67.1428 1066.47 67.1428C1061.84 67.1428 1057.83 68.2535 1054.45 70.4747C1051.07 72.5994 1048.46 75.5933 1046.62 79.4563C1044.79 83.3194 1043.87 87.9068 1043.87 93.2185C1043.87 98.4336 1044.79 103.021 1046.62 106.981C1048.46 110.844 1051.07 113.886 1054.45 116.107C1057.83 118.232 1061.84 119.294 1066.47 119.294ZM1132.99 130.159C1128.64 130.159 1125.11 128.807 1122.41 126.103C1119.71 123.399 1118.35 119.101 1118.35 113.21V28.0294H1130.52V110.892C1130.52 113.693 1131.1 115.721 1132.26 116.976C1133.42 118.232 1134.97 118.859 1136.9 118.859C1137.77 118.859 1138.73 118.763 1139.79 118.57C1140.86 118.377 1141.97 118.087 1143.13 117.701V128.131C1141.48 128.807 1139.75 129.29 1137.91 129.579C1136.08 129.966 1134.43 130.159 1132.99 130.159ZM1180.59 130.159C1175.77 130.159 1171.42 129.435 1167.56 127.986C1163.69 126.537 1160.36 124.606 1157.56 122.191C1154.86 119.777 1152.68 117.218 1151.04 114.514L1159.59 107.27C1161.42 110.94 1164.13 113.982 1167.7 116.397C1171.37 118.715 1175.72 119.874 1180.74 119.874C1185.28 119.874 1188.9 118.908 1191.6 116.976C1194.31 115.045 1195.66 112.437 1195.66 109.154C1195.66 106.449 1194.84 104.325 1193.2 102.78C1191.56 101.234 1189.38 99.9788 1186.68 99.013C1183.98 98.0473 1181.03 97.1781 1177.84 96.4055C1175.14 95.7294 1172.39 94.9085 1169.59 93.9428C1166.88 92.977 1164.42 91.7698 1162.2 90.3212C1159.98 88.8725 1158.19 86.9893 1156.84 84.6715C1155.49 82.3536 1154.81 79.5046 1154.81 76.1244C1154.81 70.2333 1157.08 65.501 1161.62 61.9277C1166.25 58.2578 1172.29 56.4229 1179.73 56.4229C1185.13 56.4229 1190.06 57.5818 1194.5 59.8996C1199.04 62.1209 1202.57 65.5011 1205.08 70.0401L1197.25 75.8347C1195.32 72.4545 1192.76 70.0401 1189.58 68.5915C1186.49 67.0463 1183.06 66.2737 1179.29 66.2737C1175.52 66.2737 1172.39 67.0463 1169.87 68.5915C1167.36 70.1367 1166.11 72.2614 1166.11 74.9655C1166.11 76.9936 1166.69 78.6354 1167.85 79.8909C1169.01 81.1464 1170.7 82.2088 1172.92 83.0779C1175.23 83.9471 1178.04 84.768 1181.32 85.5406C1184.31 86.2167 1187.36 87.0376 1190.45 88.0033C1193.54 88.9691 1196.39 90.2246 1198.99 91.7698C1201.6 93.315 1203.68 95.3914 1205.22 97.999C1206.86 100.51 1207.68 103.794 1207.68 107.85C1207.68 112.292 1206.57 116.204 1204.35 119.584C1202.13 122.964 1198.99 125.572 1194.94 127.406C1190.88 129.241 1186.1 130.159 1180.59 130.159Z" fill="#0F0F0F"/>
<path d="M497.231 238.932C494.386 238.932 492.115 238.221 490.416 236.799C488.756 235.416 487.927 233.184 487.927 230.102C487.927 228.601 488.026 227.258 488.223 226.072C488.46 224.848 488.677 223.544 488.875 222.161C489.112 220.778 489.231 219.119 489.231 217.183C489.231 215.484 488.776 214.141 487.867 213.153C486.998 212.126 485.556 211.612 483.541 211.612H480.756V207.227H483.541C485.556 207.227 486.998 206.733 487.867 205.745C488.776 204.718 489.231 203.355 489.231 201.656C489.231 199.681 489.112 198.021 488.875 196.678C488.677 195.295 488.46 194.011 488.223 192.826C488.026 191.601 487.927 190.238 487.927 188.737C487.927 185.655 488.756 183.423 490.416 182.04C492.115 180.618 494.386 179.907 497.231 179.907H502.92V184.292H497.764C496.145 184.292 494.9 184.687 494.031 185.477C493.162 186.228 492.727 187.492 492.727 189.27C492.727 190.851 492.826 192.233 493.023 193.419C493.26 194.564 493.478 195.75 493.675 196.974C493.912 198.16 494.031 199.602 494.031 201.301C494.031 203.394 493.576 205.133 492.668 206.516C491.759 207.859 490.574 208.787 489.112 209.301V209.538C490.574 210.052 491.759 211 492.668 212.383C493.576 213.726 494.031 215.445 494.031 217.539C494.031 219.237 493.912 220.699 493.675 221.924C493.478 223.109 493.26 224.294 493.023 225.48C492.826 226.625 492.727 227.989 492.727 229.569C492.727 231.347 493.162 232.611 494.031 233.362C494.9 234.152 496.145 234.547 497.764 234.547H502.92V238.932H497.231ZM514.987 241.007V236.443H518.602C520.103 236.443 521.17 236.147 521.802 235.554C522.434 234.962 522.75 233.915 522.75 232.413V202.841H515.461V198.574H522.75V193.893C522.75 190.851 523.481 188.658 524.943 187.314C526.405 185.971 528.617 185.3 531.58 185.3H538.633V189.804H531.877C530.415 189.804 529.348 190.12 528.676 190.752C528.044 191.344 527.728 192.391 527.728 193.893V198.574H538.633V202.841H527.728V232.413C527.728 235.456 526.997 237.648 525.535 238.992C524.074 240.335 521.881 241.007 518.957 241.007H514.987ZM562.848 228.68C560.082 228.68 557.633 228.048 555.499 226.783C553.366 225.519 551.687 223.741 550.462 221.45C549.237 219.119 548.625 216.393 548.625 213.272C548.625 210.15 549.237 207.444 550.462 205.153C551.687 202.822 553.366 201.024 555.499 199.76C557.633 198.495 560.082 197.863 562.848 197.863C565.613 197.863 568.063 198.495 570.196 199.76C572.33 201.024 574.009 202.822 575.234 205.153C576.459 207.444 577.071 210.15 577.071 213.272C577.071 216.393 576.459 219.119 575.234 221.45C574.009 223.741 572.33 225.519 570.196 226.783C568.063 228.048 565.613 228.68 562.848 228.68ZM562.848 223.939C564.547 223.939 566.088 223.564 567.47 222.813C568.853 222.062 569.94 220.897 570.73 219.316C571.559 217.736 571.974 215.721 571.974 213.272C571.974 210.822 571.559 208.807 570.73 207.227C569.94 205.646 568.853 204.481 567.47 203.73C566.088 202.98 564.547 202.604 562.848 202.604C561.188 202.604 559.667 202.98 558.285 203.73C556.902 204.481 555.796 205.646 554.966 207.227C554.136 208.807 553.721 210.822 553.721 213.272C553.721 216.946 554.61 219.652 556.388 221.391C558.166 223.089 560.319 223.939 562.848 223.939ZM585.582 227.969V223.702H593.108V204.323C593.108 203.335 592.634 202.841 591.686 202.841H586.352V198.574H593.523C594.827 198.574 595.874 198.93 596.664 199.641C597.454 200.352 597.849 201.399 597.849 202.782V204.027H598.086C598.56 202.051 599.449 200.53 600.753 199.463C602.096 198.397 603.953 197.863 606.324 197.863H611.716V203.138H605.612C603.202 203.138 601.345 203.948 600.042 205.567C598.738 207.148 598.086 209.182 598.086 211.671V223.702H607.331V227.969H585.582ZM669.748 228.68C666.982 228.68 664.533 228.048 662.399 226.783C660.305 225.48 658.646 223.682 657.421 221.391C656.196 219.06 655.584 216.353 655.584 213.272C655.584 210.19 656.176 207.503 657.362 205.212C658.587 202.881 660.266 201.083 662.399 199.819C664.533 198.515 667.022 197.863 669.866 197.863C672.711 197.863 675.141 198.515 677.156 199.819C679.17 201.083 680.711 202.762 681.778 204.856C682.845 206.95 683.378 209.202 683.378 211.612C683.378 212.047 683.358 212.481 683.319 212.916C683.319 213.351 683.319 213.844 683.319 214.398H660.503C660.621 216.571 661.115 218.388 661.984 219.85C662.893 221.272 664.019 222.339 665.362 223.05C666.745 223.761 668.207 224.117 669.748 224.117C671.921 224.117 673.619 223.662 674.844 222.754C676.069 221.845 676.997 220.581 677.63 218.961H682.548C681.877 221.687 680.474 223.998 678.341 225.895C676.207 227.751 673.343 228.68 669.748 228.68ZM669.748 202.308C667.456 202.308 665.441 202.999 663.703 204.382C662.004 205.765 660.957 207.701 660.562 210.19H678.459C678.301 207.74 677.412 205.824 675.792 204.441C674.212 203.019 672.197 202.308 669.748 202.308ZM703.978 228.68C701.489 228.68 699.257 228.087 697.282 226.902C695.346 225.717 693.825 223.978 692.718 221.687C691.612 219.356 691.059 216.531 691.059 213.212C691.059 209.933 691.612 207.148 692.718 204.856C693.825 202.565 695.346 200.826 697.282 199.641C699.257 198.456 701.489 197.863 703.978 197.863C706.309 197.863 708.226 198.318 709.727 199.226C711.268 200.135 712.413 201.32 713.164 202.782V185.3H718.142V227.969H714.053L713.52 223.406H713.164C712.374 225.025 711.208 226.309 709.668 227.258C708.127 228.206 706.23 228.68 703.978 228.68ZM704.63 223.939C707.119 223.939 709.174 223.07 710.794 221.331C712.413 219.553 713.223 216.867 713.223 213.272C713.223 209.676 712.413 207.009 710.794 205.271C709.174 203.493 707.119 202.604 704.63 202.604C702.141 202.604 700.087 203.493 698.467 205.271C696.887 207.009 696.096 209.676 696.096 213.272C696.096 216.867 696.887 219.553 698.467 221.331C700.087 223.07 702.141 223.939 704.63 223.939ZM738.446 228.68C734.89 228.68 732.204 227.613 730.386 225.48C728.569 223.346 727.66 220.265 727.66 216.235V198.574H732.638V215.642C732.638 218.25 733.211 220.304 734.357 221.805C735.542 223.267 737.32 223.998 739.691 223.998C742.061 223.998 744.056 223.208 745.676 221.628C747.296 220.008 748.106 217.697 748.106 214.694V198.574H753.084V227.969H748.936L748.402 223.524H748.106C747.316 224.946 746.071 226.171 744.372 227.198C742.674 228.186 740.698 228.68 738.446 228.68ZM776.529 228.68C773.882 228.68 771.511 228.068 769.417 226.843C767.363 225.618 765.723 223.86 764.499 221.568C763.274 219.237 762.661 216.472 762.661 213.272C762.661 210.071 763.274 207.326 764.499 205.034C765.723 202.703 767.383 200.925 769.477 199.7C771.61 198.476 773.961 197.863 776.529 197.863C780.164 197.863 783.068 198.772 785.241 200.589C787.414 202.407 788.796 204.837 789.389 207.879H784.292C783.818 206.259 782.91 204.975 781.566 204.027C780.223 203.039 778.524 202.545 776.47 202.545C774.968 202.545 773.546 202.94 772.203 203.73C770.859 204.52 769.773 205.706 768.943 207.286C768.114 208.866 767.699 210.862 767.699 213.272C767.699 215.682 768.114 217.697 768.943 219.316C769.773 220.897 770.859 222.082 772.203 222.872C773.546 223.662 774.968 224.057 776.47 224.057C778.643 224.057 780.361 223.564 781.626 222.576C782.929 221.588 783.818 220.284 784.292 218.664H789.389C788.638 221.786 787.157 224.235 784.944 226.013C782.771 227.791 779.966 228.68 776.529 228.68ZM809.1 228.68C806.769 228.68 804.833 228.265 803.293 227.435C801.752 226.606 800.606 225.519 799.855 224.176C799.105 222.793 798.729 221.292 798.729 219.672C798.729 216.669 799.816 214.398 801.989 212.857C804.201 211.276 807.145 210.486 810.819 210.486H818.879V209.894C818.879 204.758 816.528 202.189 811.826 202.189C809.93 202.189 808.33 202.604 807.026 203.434C805.762 204.264 804.952 205.567 804.596 207.345H799.5C799.697 205.37 800.349 203.671 801.455 202.249C802.601 200.826 804.063 199.74 805.841 198.989C807.619 198.239 809.614 197.863 811.826 197.863C816.014 197.863 819.056 198.97 820.953 201.182C822.889 203.355 823.857 206.259 823.857 209.894V227.969H819.59L819.175 223.406H818.76C817.891 224.828 816.725 226.072 815.264 227.139C813.841 228.166 811.787 228.68 809.1 228.68ZM809.989 224.294C811.886 224.294 813.486 223.84 814.79 222.931C816.133 222.023 817.14 220.818 817.812 219.316C818.523 217.815 818.879 216.175 818.879 214.398H811.234C808.547 214.398 806.651 214.852 805.545 215.761C804.478 216.669 803.944 217.874 803.944 219.376C803.944 220.916 804.458 222.121 805.485 222.991C806.513 223.86 808.014 224.294 809.989 224.294ZM850.206 227.969C847.519 227.969 845.405 227.317 843.864 226.013C842.324 224.709 841.553 222.359 841.553 218.961V202.841H834.086V198.574H838.531C840.546 198.574 841.711 197.587 842.027 195.611L842.857 191.048H846.531V198.574H858.265V202.841H846.531V218.961C846.531 220.62 846.907 221.786 847.657 222.457C848.447 223.129 849.791 223.465 851.687 223.465H858.265V227.969H850.206ZM882.303 193.359C881.118 193.359 880.13 192.964 879.34 192.174C878.549 191.384 878.154 190.436 878.154 189.329C878.154 188.184 878.549 187.235 879.34 186.485C880.13 185.695 881.118 185.3 882.303 185.3C883.449 185.3 884.417 185.695 885.207 186.485C886.036 187.235 886.451 188.184 886.451 189.329C886.451 190.436 886.036 191.384 885.207 192.174C884.417 192.964 883.449 193.359 882.303 193.359ZM870.806 227.969V223.702H880.169V204.323C880.169 203.335 879.675 202.841 878.688 202.841H871.813V198.574H879.873C883.389 198.574 885.147 200.333 885.147 203.849V223.702H894.511V227.969H870.806ZM918.193 228.68C915.427 228.68 912.978 228.048 910.844 226.783C908.711 225.519 907.032 223.741 905.807 221.45C904.582 219.119 903.97 216.393 903.97 213.272C903.97 210.15 904.582 207.444 905.807 205.153C907.032 202.822 908.711 201.024 910.844 199.76C912.978 198.495 915.427 197.863 918.193 197.863C920.958 197.863 923.408 198.495 925.541 199.76C927.675 201.024 929.354 202.822 930.579 205.153C931.804 207.444 932.416 210.15 932.416 213.272C932.416 216.393 931.804 219.119 930.579 221.45C929.354 223.741 927.675 225.519 925.541 226.783C923.408 228.048 920.958 228.68 918.193 228.68ZM918.193 223.939C919.892 223.939 921.433 223.564 922.815 222.813C924.198 222.062 925.285 220.897 926.075 219.316C926.905 217.736 927.319 215.721 927.319 213.272C927.319 210.822 926.905 208.807 926.075 207.227C925.285 205.646 924.198 204.481 922.815 203.73C921.433 202.98 919.892 202.604 918.193 202.604C916.534 202.604 915.012 202.98 913.63 203.73C912.247 204.481 911.141 205.646 910.311 207.227C909.481 208.807 909.066 210.822 909.066 213.272C909.066 216.946 909.955 219.652 911.733 221.391C913.511 223.089 915.664 223.939 918.193 223.939ZM941.164 227.969V198.574H945.312L945.845 203.019H946.142C946.932 201.597 948.176 200.392 949.875 199.404C951.574 198.377 953.53 197.863 955.742 197.863C959.338 197.863 962.024 198.93 963.802 201.063C965.619 203.197 966.528 206.279 966.528 210.308V227.969H961.55V210.901C961.55 208.294 960.977 206.259 959.831 204.797C958.686 203.296 956.908 202.545 954.498 202.545C952.167 202.545 950.191 203.355 948.572 204.975C946.952 206.555 946.142 208.847 946.142 211.849V227.969H941.164ZM981.084 238.932V234.547H986.239C987.859 234.547 989.104 234.152 989.973 233.362C990.842 232.611 991.277 231.347 991.277 229.569C991.277 227.989 991.158 226.625 990.921 225.48C990.724 224.294 990.506 223.109 990.269 221.924C990.072 220.699 989.973 219.237 989.973 217.539C989.973 215.445 990.427 213.726 991.336 212.383C992.245 211 993.43 210.052 994.892 209.538V209.301C993.43 208.787 992.245 207.859 991.336 206.516C990.427 205.133 989.973 203.394 989.973 201.301C989.973 199.602 990.072 198.16 990.269 196.974C990.506 195.75 990.724 194.564 990.921 193.419C991.158 192.233 991.277 190.851 991.277 189.27C991.277 187.492 990.842 186.228 989.973 185.477C989.104 184.687 987.859 184.292 986.239 184.292H981.084V179.907H986.773C989.617 179.907 991.869 180.618 993.529 182.04C995.228 183.423 996.077 185.655 996.077 188.737C996.077 190.238 995.959 191.601 995.722 192.826C995.524 194.011 995.307 195.295 995.07 196.678C994.872 198.021 994.773 199.681 994.773 201.656C994.773 203.355 995.208 204.718 996.077 205.745C996.986 206.733 998.448 207.227 1000.46 207.227H1003.25V211.612H1000.46C998.448 211.612 996.986 212.126 996.077 213.153C995.208 214.141 994.773 215.484 994.773 217.183C994.773 219.119 994.872 220.778 995.07 222.161C995.307 223.544 995.524 224.848 995.722 226.072C995.959 227.258 996.077 228.601 996.077 230.102C996.077 233.184 995.228 235.416 993.529 236.799C991.869 238.221 989.617 238.932 986.773 238.932H981.084Z" fill="#6B6B6B"/>
<rect x="1042" y="170.094" width="169.378" height="76.749" rx="38.3745" fill="#F73640"/>
<path d="M1073.35 220.969V195.443H1081.04C1085.31 195.443 1088.62 196.566 1090.96 198.812C1093.31 201.058 1094.48 204.257 1094.48 208.407C1094.48 212.46 1093.32 215.573 1091 217.746C1088.71 219.894 1085.37 220.969 1081 220.969H1073.35ZM1079.1 215.695H1080.42C1082.15 215.695 1083.63 215.5 1084.85 215.109C1086.09 214.719 1087.04 213.986 1087.7 212.912C1088.36 211.813 1088.69 210.238 1088.69 208.188C1088.69 206.21 1088.38 204.684 1087.74 203.61C1087.13 202.511 1086.24 201.754 1085.07 201.339C1083.92 200.924 1082.54 200.717 1080.93 200.717H1079.1V215.695ZM1112.97 221.628C1110.51 221.628 1108.33 221.066 1106.45 219.943C1104.57 218.82 1103.11 217.258 1102.06 215.256C1101.01 213.229 1100.48 210.885 1100.48 208.224C1100.48 205.539 1101.01 203.195 1102.06 201.193C1103.11 199.166 1104.57 197.592 1106.45 196.468C1108.33 195.345 1110.51 194.784 1112.97 194.784C1115.46 194.784 1117.65 195.345 1119.53 196.468C1121.41 197.567 1122.87 199.13 1123.92 201.156C1124.97 203.158 1125.5 205.514 1125.5 208.224C1125.5 210.91 1124.96 213.266 1123.89 215.292C1122.84 217.294 1121.37 218.857 1119.49 219.98C1117.61 221.079 1115.44 221.628 1112.97 221.628ZM1112.97 216.135C1114.36 216.135 1115.56 215.817 1116.56 215.182C1117.56 214.523 1118.33 213.608 1118.87 212.436C1119.43 211.239 1119.71 209.836 1119.71 208.224C1119.71 206.588 1119.43 205.185 1118.87 204.013C1118.33 202.816 1117.56 201.901 1116.56 201.266C1115.56 200.607 1114.36 200.277 1112.97 200.277C1111.61 200.277 1110.41 200.595 1109.38 201.229C1108.38 201.864 1107.6 202.78 1107.04 203.976C1106.5 205.148 1106.23 206.564 1106.23 208.224C1106.23 209.86 1106.5 211.276 1107.04 212.472C1107.6 213.644 1108.38 214.548 1109.38 215.182C1110.41 215.817 1111.61 216.135 1112.97 216.135ZM1143.99 221.628C1141.53 221.628 1139.36 221.066 1137.48 219.943C1135.6 218.82 1134.13 217.258 1133.08 215.256C1132.03 213.229 1131.51 210.873 1131.51 208.188C1131.51 205.502 1132.03 203.158 1133.08 201.156C1134.13 199.154 1135.6 197.592 1137.48 196.468C1139.36 195.345 1141.53 194.784 1143.99 194.784C1146.8 194.784 1149.22 195.492 1151.25 196.908C1153.27 198.3 1154.72 200.228 1155.6 202.694L1150.18 204.635C1149.69 203.268 1148.91 202.206 1147.84 201.449C1146.79 200.668 1145.51 200.277 1143.99 200.277C1142.63 200.277 1141.43 200.595 1140.4 201.229C1139.4 201.864 1138.62 202.767 1138.06 203.939C1137.52 205.111 1137.26 206.527 1137.26 208.188C1137.26 209.848 1137.52 211.276 1138.06 212.472C1138.62 213.644 1139.4 214.548 1140.4 215.182C1141.43 215.817 1142.63 216.135 1143.99 216.135C1145.51 216.135 1146.79 215.756 1147.84 214.999C1148.91 214.218 1149.69 213.144 1150.18 211.777L1155.6 213.718C1154.72 216.159 1153.27 218.088 1151.25 219.504C1149.22 220.92 1146.8 221.628 1143.99 221.628ZM1171.13 221.518C1168.29 221.518 1165.98 220.786 1164.17 219.321C1162.36 217.856 1161.26 215.903 1160.87 213.461L1166.48 212.07C1166.74 213.534 1167.29 214.633 1168.12 215.366C1168.98 216.074 1170.04 216.428 1171.31 216.428C1171.94 216.428 1172.51 216.33 1172.99 216.135C1173.51 215.939 1173.91 215.646 1174.2 215.256C1174.5 214.865 1174.64 214.401 1174.64 213.864C1174.64 213.376 1174.5 212.948 1174.2 212.582C1173.91 212.192 1173.43 211.825 1172.78 211.484C1172.12 211.117 1171.24 210.727 1170.14 210.312C1168.4 209.628 1166.99 208.908 1165.89 208.151C1164.79 207.37 1163.99 206.479 1163.47 205.478C1162.96 204.477 1162.7 203.329 1162.7 202.035C1162.7 200.619 1163.05 199.374 1163.73 198.3C1164.44 197.201 1165.41 196.346 1166.66 195.736C1167.93 195.101 1169.39 194.784 1171.05 194.784C1172.84 194.784 1174.41 195.199 1175.78 196.029C1177.17 196.835 1178.28 198.068 1179.11 199.728L1174.53 202.511C1174.07 201.657 1173.52 201.01 1172.88 200.57C1172.27 200.106 1171.6 199.874 1170.87 199.874C1170.43 199.874 1170.03 199.96 1169.66 200.131C1169.3 200.302 1169 200.546 1168.78 200.863C1168.56 201.156 1168.45 201.51 1168.45 201.925C1168.45 202.34 1168.58 202.731 1168.82 203.097C1169.09 203.463 1169.56 203.842 1170.25 204.232C1170.93 204.599 1171.88 205.014 1173.1 205.478C1174.74 206.088 1176.08 206.759 1177.13 207.492C1178.21 208.224 1179.01 209.079 1179.55 210.055C1180.09 211.008 1180.36 212.155 1180.36 213.498C1180.36 215.06 1179.97 216.452 1179.18 217.673C1178.43 218.869 1177.35 219.809 1175.96 220.493C1174.59 221.176 1172.98 221.518 1171.13 221.518Z" fill="white"/>
</svg>
